<mxfile host="app.diagrams.net" modified="2024-04-02T03:34:07.090Z" agent="Mozilla/5.0 (Windows NT 10.0; Win64; x64) AppleWebKit/537.36 (KHTML, like Gecko) Chrome/123.0.0.0 Safari/537.36" etag="ejasU9Y0adJuFSC8KHF5" version="24.2.1" type="device">
  <diagram name="페이지-1" id="J0A4-Njpj5DX3goVxqyJ">
    <mxGraphModel dx="1969" dy="878" grid="1" gridSize="10" guides="1" tooltips="1" connect="1" arrows="1" fold="1" page="1" pageScale="1" pageWidth="827" pageHeight="1169" math="0" shadow="0">
      <root>
        <mxCell id="0" />
        <mxCell id="1" parent="0" />
        <mxCell id="wkOXgWB1VR7chD2TaQbj-1" value="&lt;b&gt;&lt;font style=&quot;font-size: 15px;&quot;&gt;traffic&lt;/font&gt;&lt;/b&gt;&lt;div&gt;&lt;b&gt;&lt;font style=&quot;font-size: 15px;&quot;&gt;(교통편(컬럼))&lt;/font&gt;&lt;/b&gt;&lt;/div&gt;" style="rounded=0;whiteSpace=wrap;html=1;" parent="1" vertex="1">
          <mxGeometry x="360" y="40" width="120" height="60" as="geometry" />
        </mxCell>
        <mxCell id="wkOXgWB1VR7chD2TaQbj-2" value="ttype&lt;div&gt;(종류)&lt;/div&gt;" style="ellipse;whiteSpace=wrap;html=1;" parent="1" vertex="1">
          <mxGeometry x="276" y="140" width="90" height="60" as="geometry" />
        </mxCell>
        <mxCell id="wkOXgWB1VR7chD2TaQbj-3" value="no&lt;div&gt;(번호)&lt;/div&gt;" style="ellipse;whiteSpace=wrap;html=1;" parent="1" vertex="1">
          <mxGeometry x="376" y="140" width="90" height="60" as="geometry" />
        </mxCell>
        <mxCell id="wkOXgWB1VR7chD2TaQbj-4" value="route&lt;div&gt;(노선도)&lt;/div&gt;" style="ellipse;whiteSpace=wrap;html=1;" parent="1" vertex="1">
          <mxGeometry x="475" y="140" width="90" height="60" as="geometry" />
        </mxCell>
        <mxCell id="wkOXgWB1VR7chD2TaQbj-5" value="coment&lt;div&gt;(설명)&lt;/div&gt;" style="ellipse;whiteSpace=wrap;html=1;" parent="1" vertex="1">
          <mxGeometry x="576" y="140" width="90" height="60" as="geometry" />
        </mxCell>
        <mxCell id="wkOXgWB1VR7chD2TaQbj-6" value="" style="endArrow=classic;html=1;rounded=0;exitX=0.5;exitY=1;exitDx=0;exitDy=0;entryX=0.5;entryY=0;entryDx=0;entryDy=0;" parent="1" source="wkOXgWB1VR7chD2TaQbj-1" target="wkOXgWB1VR7chD2TaQbj-2" edge="1">
          <mxGeometry width="50" height="50" relative="1" as="geometry">
            <mxPoint x="244" y="120" as="sourcePoint" />
            <mxPoint x="294" y="70" as="targetPoint" />
          </mxGeometry>
        </mxCell>
        <mxCell id="wkOXgWB1VR7chD2TaQbj-7" value="" style="endArrow=classic;html=1;rounded=0;exitX=0.5;exitY=1;exitDx=0;exitDy=0;entryX=0.5;entryY=0;entryDx=0;entryDy=0;" parent="1" source="wkOXgWB1VR7chD2TaQbj-1" target="wkOXgWB1VR7chD2TaQbj-3" edge="1">
          <mxGeometry width="50" height="50" relative="1" as="geometry">
            <mxPoint x="609" y="80" as="sourcePoint" />
            <mxPoint x="424" y="150" as="targetPoint" />
          </mxGeometry>
        </mxCell>
        <mxCell id="wkOXgWB1VR7chD2TaQbj-8" value="" style="endArrow=classic;html=1;rounded=0;exitX=0.5;exitY=1;exitDx=0;exitDy=0;entryX=0.5;entryY=0;entryDx=0;entryDy=0;" parent="1" source="wkOXgWB1VR7chD2TaQbj-1" target="wkOXgWB1VR7chD2TaQbj-4" edge="1">
          <mxGeometry width="50" height="50" relative="1" as="geometry">
            <mxPoint x="679" y="70" as="sourcePoint" />
            <mxPoint x="494" y="140" as="targetPoint" />
          </mxGeometry>
        </mxCell>
        <mxCell id="wkOXgWB1VR7chD2TaQbj-9" value="" style="endArrow=classic;html=1;rounded=0;exitX=0.5;exitY=1;exitDx=0;exitDy=0;entryX=0.5;entryY=0;entryDx=0;entryDy=0;" parent="1" source="wkOXgWB1VR7chD2TaQbj-1" target="wkOXgWB1VR7chD2TaQbj-5" edge="1">
          <mxGeometry width="50" height="50" relative="1" as="geometry">
            <mxPoint x="729" y="70" as="sourcePoint" />
            <mxPoint x="544" y="140" as="targetPoint" />
          </mxGeometry>
        </mxCell>
        <mxCell id="wkOXgWB1VR7chD2TaQbj-10" value="&lt;span style=&quot;font-size: 15px;&quot;&gt;&lt;b&gt;guide&lt;/b&gt;&lt;/span&gt;&lt;div&gt;&lt;span style=&quot;font-size: 15px;&quot;&gt;&lt;b&gt;(안내사항)&lt;/b&gt;&lt;/span&gt;&lt;/div&gt;" style="rounded=0;whiteSpace=wrap;html=1;" parent="1" vertex="1">
          <mxGeometry x="1112" y="40" width="120" height="60" as="geometry" />
        </mxCell>
        <mxCell id="wkOXgWB1VR7chD2TaQbj-11" value="&lt;b&gt;&lt;u&gt;&lt;font color=&quot;#990000&quot;&gt;no&lt;/font&gt;&lt;/u&gt;&lt;/b&gt;&lt;div&gt;&lt;b&gt;&lt;u&gt;&lt;font color=&quot;#990000&quot;&gt;(글번호)&lt;/font&gt;&lt;/u&gt;&lt;/b&gt;&lt;/div&gt;" style="ellipse;whiteSpace=wrap;html=1;" parent="1" vertex="1">
          <mxGeometry x="176" y="400" width="90" height="60" as="geometry" />
        </mxCell>
        <mxCell id="wkOXgWB1VR7chD2TaQbj-12" value="pname&lt;div&gt;(장소이름)&lt;/div&gt;" style="ellipse;whiteSpace=wrap;html=1;" parent="1" vertex="1">
          <mxGeometry x="871" y="140" width="90" height="60" as="geometry" />
        </mxCell>
        <mxCell id="wkOXgWB1VR7chD2TaQbj-13" value="ptype&lt;div&gt;(장소종류)&lt;/div&gt;" style="ellipse;whiteSpace=wrap;html=1;" parent="1" vertex="1">
          <mxGeometry x="971" y="140" width="90" height="60" as="geometry" />
        </mxCell>
        <mxCell id="wkOXgWB1VR7chD2TaQbj-14" value="paddr&lt;div&gt;(장소주소)&lt;/div&gt;" style="ellipse;whiteSpace=wrap;html=1;" parent="1" vertex="1">
          <mxGeometry x="1070" y="140" width="90" height="60" as="geometry" />
        </mxCell>
        <mxCell id="wkOXgWB1VR7chD2TaQbj-15" value="ptel&lt;div&gt;(장소연락처)&lt;/div&gt;" style="ellipse;whiteSpace=wrap;html=1;" parent="1" vertex="1">
          <mxGeometry x="1171" y="140" width="90" height="60" as="geometry" />
        </mxCell>
        <mxCell id="wkOXgWB1VR7chD2TaQbj-16" value="pgps&lt;div&gt;(장소GPS값)&lt;/div&gt;" style="ellipse;whiteSpace=wrap;html=1;" parent="1" vertex="1">
          <mxGeometry x="1271" y="140" width="90" height="60" as="geometry" />
        </mxCell>
        <mxCell id="wkOXgWB1VR7chD2TaQbj-17" value="pcoment&lt;div&gt;(장소설명)&lt;/div&gt;" style="ellipse;whiteSpace=wrap;html=1;" parent="1" vertex="1">
          <mxGeometry x="1371" y="140" width="90" height="60" as="geometry" />
        </mxCell>
        <mxCell id="wkOXgWB1VR7chD2TaQbj-18" value="premark&lt;div&gt;(참고사항)&lt;/div&gt;" style="ellipse;whiteSpace=wrap;html=1;" parent="1" vertex="1">
          <mxGeometry x="1471" y="140" width="90" height="60" as="geometry" />
        </mxCell>
        <mxCell id="wkOXgWB1VR7chD2TaQbj-20" value="" style="endArrow=classic;html=1;rounded=0;exitX=0.5;exitY=1;exitDx=0;exitDy=0;entryX=0.5;entryY=0;entryDx=0;entryDy=0;" parent="1" source="wkOXgWB1VR7chD2TaQbj-10" target="wkOXgWB1VR7chD2TaQbj-12" edge="1">
          <mxGeometry width="50" height="50" relative="1" as="geometry">
            <mxPoint x="822" y="280" as="sourcePoint" />
            <mxPoint x="872" y="230" as="targetPoint" />
          </mxGeometry>
        </mxCell>
        <mxCell id="wkOXgWB1VR7chD2TaQbj-21" value="" style="endArrow=classic;html=1;rounded=0;exitX=0.5;exitY=1;exitDx=0;exitDy=0;entryX=0.5;entryY=0;entryDx=0;entryDy=0;" parent="1" source="wkOXgWB1VR7chD2TaQbj-10" target="wkOXgWB1VR7chD2TaQbj-13" edge="1">
          <mxGeometry width="50" height="50" relative="1" as="geometry">
            <mxPoint x="1002" y="290" as="sourcePoint" />
            <mxPoint x="1052" y="240" as="targetPoint" />
          </mxGeometry>
        </mxCell>
        <mxCell id="wkOXgWB1VR7chD2TaQbj-22" value="" style="endArrow=classic;html=1;rounded=0;exitX=0.5;exitY=1;exitDx=0;exitDy=0;entryX=0.5;entryY=0;entryDx=0;entryDy=0;" parent="1" source="wkOXgWB1VR7chD2TaQbj-10" target="wkOXgWB1VR7chD2TaQbj-14" edge="1">
          <mxGeometry width="50" height="50" relative="1" as="geometry">
            <mxPoint x="992" y="300" as="sourcePoint" />
            <mxPoint x="1042" y="250" as="targetPoint" />
          </mxGeometry>
        </mxCell>
        <mxCell id="wkOXgWB1VR7chD2TaQbj-23" value="" style="endArrow=classic;html=1;rounded=0;exitX=0.5;exitY=1;exitDx=0;exitDy=0;entryX=0.5;entryY=0;entryDx=0;entryDy=0;" parent="1" source="wkOXgWB1VR7chD2TaQbj-10" target="wkOXgWB1VR7chD2TaQbj-15" edge="1">
          <mxGeometry width="50" height="50" relative="1" as="geometry">
            <mxPoint x="1142" y="330" as="sourcePoint" />
            <mxPoint x="1192" y="280" as="targetPoint" />
          </mxGeometry>
        </mxCell>
        <mxCell id="wkOXgWB1VR7chD2TaQbj-24" value="" style="endArrow=classic;html=1;rounded=0;exitX=0.5;exitY=1;exitDx=0;exitDy=0;entryX=0.433;entryY=-0.017;entryDx=0;entryDy=0;entryPerimeter=0;" parent="1" source="wkOXgWB1VR7chD2TaQbj-10" target="wkOXgWB1VR7chD2TaQbj-16" edge="1">
          <mxGeometry width="50" height="50" relative="1" as="geometry">
            <mxPoint x="1112" y="300" as="sourcePoint" />
            <mxPoint x="1162" y="250" as="targetPoint" />
          </mxGeometry>
        </mxCell>
        <mxCell id="wkOXgWB1VR7chD2TaQbj-25" value="" style="endArrow=classic;html=1;rounded=0;exitX=0.5;exitY=1;exitDx=0;exitDy=0;entryX=0.5;entryY=0;entryDx=0;entryDy=0;" parent="1" source="wkOXgWB1VR7chD2TaQbj-10" target="wkOXgWB1VR7chD2TaQbj-17" edge="1">
          <mxGeometry width="50" height="50" relative="1" as="geometry">
            <mxPoint x="1182" y="290" as="sourcePoint" />
            <mxPoint x="1232" y="240" as="targetPoint" />
          </mxGeometry>
        </mxCell>
        <mxCell id="wkOXgWB1VR7chD2TaQbj-26" value="" style="endArrow=classic;html=1;rounded=0;exitX=0.5;exitY=1;exitDx=0;exitDy=0;entryX=0.5;entryY=0;entryDx=0;entryDy=0;" parent="1" source="wkOXgWB1VR7chD2TaQbj-10" target="wkOXgWB1VR7chD2TaQbj-18" edge="1">
          <mxGeometry width="50" height="50" relative="1" as="geometry">
            <mxPoint x="1122" y="330" as="sourcePoint" />
            <mxPoint x="1172" y="280" as="targetPoint" />
          </mxGeometry>
        </mxCell>
        <mxCell id="wkOXgWB1VR7chD2TaQbj-27" value="&lt;span style=&quot;font-size: 15px;&quot;&gt;&lt;b&gt;notice&lt;/b&gt;&lt;/span&gt;&lt;div&gt;&lt;span style=&quot;font-size: 15px;&quot;&gt;&lt;b&gt;(공지사항)&lt;/b&gt;&lt;/span&gt;&lt;/div&gt;" style="rounded=0;whiteSpace=wrap;html=1;" parent="1" vertex="1">
          <mxGeometry x="361" y="280" width="120" height="60" as="geometry" />
        </mxCell>
        <mxCell id="wkOXgWB1VR7chD2TaQbj-30" value="title&lt;div&gt;(글제목)&lt;/div&gt;" style="ellipse;whiteSpace=wrap;html=1;" parent="1" vertex="1">
          <mxGeometry x="276" y="400" width="90" height="60" as="geometry" />
        </mxCell>
        <mxCell id="wkOXgWB1VR7chD2TaQbj-31" value="&lt;div&gt;content&lt;/div&gt;&lt;div&gt;(글내용)&lt;/div&gt;" style="ellipse;whiteSpace=wrap;html=1;" parent="1" vertex="1">
          <mxGeometry x="376" y="400" width="90" height="60" as="geometry" />
        </mxCell>
        <mxCell id="wkOXgWB1VR7chD2TaQbj-32" value="resdate&lt;div&gt;(작성일자)&lt;/div&gt;" style="ellipse;whiteSpace=wrap;html=1;" parent="1" vertex="1">
          <mxGeometry x="476" y="400" width="90" height="60" as="geometry" />
        </mxCell>
        <mxCell id="wkOXgWB1VR7chD2TaQbj-33" value="visited&lt;div&gt;(읽은 횟수)&lt;/div&gt;" style="ellipse;whiteSpace=wrap;html=1;" parent="1" vertex="1">
          <mxGeometry x="576" y="400" width="90" height="60" as="geometry" />
        </mxCell>
        <mxCell id="FDxoLe6O9AtDXGX3MepI-33" style="edgeStyle=orthogonalEdgeStyle;rounded=0;orthogonalLoop=1;jettySize=auto;html=1;exitX=1;exitY=0.5;exitDx=0;exitDy=0;entryX=1;entryY=0.5;entryDx=0;entryDy=0;" edge="1" parent="1" source="wkOXgWB1VR7chD2TaQbj-34" target="FDxoLe6O9AtDXGX3MepI-36">
          <mxGeometry relative="1" as="geometry">
            <mxPoint x="834.6200000000042" y="880" as="targetPoint" />
            <Array as="points">
              <mxPoint x="1570" y="550" />
              <mxPoint x="1570" y="880" />
            </Array>
          </mxGeometry>
        </mxCell>
        <mxCell id="wkOXgWB1VR7chD2TaQbj-34" value="&lt;span style=&quot;font-size: 15px;&quot;&gt;&lt;b&gt;qna&lt;/b&gt;&lt;/span&gt;&lt;div&gt;&lt;span style=&quot;font-size: 15px;&quot;&gt;&lt;b&gt;(묻고 답하기)&lt;/b&gt;&lt;/span&gt;&lt;/div&gt;" style="rounded=0;whiteSpace=wrap;html=1;" parent="1" vertex="1">
          <mxGeometry x="1118.5" y="520" width="120" height="60" as="geometry" />
        </mxCell>
        <mxCell id="wkOXgWB1VR7chD2TaQbj-36" value="title&lt;div&gt;(글제목)&lt;/div&gt;" style="ellipse;whiteSpace=wrap;html=1;" parent="1" vertex="1">
          <mxGeometry x="1032.37" y="660" width="90" height="60" as="geometry" />
        </mxCell>
        <mxCell id="wkOXgWB1VR7chD2TaQbj-37" value="" style="endArrow=classic;html=1;rounded=0;exitX=0.5;exitY=1;exitDx=0;exitDy=0;entryX=0.5;entryY=0;entryDx=0;entryDy=0;" parent="1" source="wkOXgWB1VR7chD2TaQbj-27" target="wkOXgWB1VR7chD2TaQbj-11" edge="1">
          <mxGeometry width="50" height="50" relative="1" as="geometry">
            <mxPoint x="31" y="550" as="sourcePoint" />
            <mxPoint x="81" y="500" as="targetPoint" />
          </mxGeometry>
        </mxCell>
        <mxCell id="wkOXgWB1VR7chD2TaQbj-38" value="" style="endArrow=classic;html=1;rounded=0;exitX=0.5;exitY=1;exitDx=0;exitDy=0;entryX=0.5;entryY=0;entryDx=0;entryDy=0;" parent="1" source="wkOXgWB1VR7chD2TaQbj-27" target="wkOXgWB1VR7chD2TaQbj-30" edge="1">
          <mxGeometry width="50" height="50" relative="1" as="geometry">
            <mxPoint x="151" y="630" as="sourcePoint" />
            <mxPoint x="201" y="580" as="targetPoint" />
          </mxGeometry>
        </mxCell>
        <mxCell id="wkOXgWB1VR7chD2TaQbj-39" value="" style="endArrow=classic;html=1;rounded=0;exitX=0.5;exitY=1;exitDx=0;exitDy=0;entryX=0.5;entryY=0;entryDx=0;entryDy=0;" parent="1" source="wkOXgWB1VR7chD2TaQbj-27" target="wkOXgWB1VR7chD2TaQbj-31" edge="1">
          <mxGeometry width="50" height="50" relative="1" as="geometry">
            <mxPoint x="131" y="620" as="sourcePoint" />
            <mxPoint x="181" y="570" as="targetPoint" />
          </mxGeometry>
        </mxCell>
        <mxCell id="wkOXgWB1VR7chD2TaQbj-40" value="" style="endArrow=classic;html=1;rounded=0;exitX=0.5;exitY=1;exitDx=0;exitDy=0;entryX=0.5;entryY=0;entryDx=0;entryDy=0;" parent="1" source="wkOXgWB1VR7chD2TaQbj-27" target="wkOXgWB1VR7chD2TaQbj-32" edge="1">
          <mxGeometry width="50" height="50" relative="1" as="geometry">
            <mxPoint x="241" y="580" as="sourcePoint" />
            <mxPoint x="291" y="530" as="targetPoint" />
          </mxGeometry>
        </mxCell>
        <mxCell id="wkOXgWB1VR7chD2TaQbj-41" value="" style="endArrow=classic;html=1;rounded=0;exitX=0.5;exitY=1;exitDx=0;exitDy=0;entryX=0.5;entryY=0;entryDx=0;entryDy=0;" parent="1" source="wkOXgWB1VR7chD2TaQbj-27" target="wkOXgWB1VR7chD2TaQbj-33" edge="1">
          <mxGeometry width="50" height="50" relative="1" as="geometry">
            <mxPoint x="141" y="580" as="sourcePoint" />
            <mxPoint x="191" y="530" as="targetPoint" />
          </mxGeometry>
        </mxCell>
        <mxCell id="wkOXgWB1VR7chD2TaQbj-45" value="parno&lt;div&gt;(부모글번호)&lt;/div&gt;" style="ellipse;whiteSpace=wrap;html=1;" parent="1" vertex="1">
          <mxGeometry x="932.37" y="660" width="90" height="60" as="geometry" />
        </mxCell>
        <mxCell id="wkOXgWB1VR7chD2TaQbj-46" value="&lt;div&gt;content&lt;/div&gt;&lt;div&gt;(글내용)&lt;/div&gt;" style="ellipse;whiteSpace=wrap;html=1;" parent="1" vertex="1">
          <mxGeometry x="1132.37" y="660" width="90" height="60" as="geometry" />
        </mxCell>
        <mxCell id="wkOXgWB1VR7chD2TaQbj-47" value="resdate&lt;div&gt;(작성일자)&lt;/div&gt;" style="ellipse;whiteSpace=wrap;html=1;" parent="1" vertex="1">
          <mxGeometry x="1232.37" y="660" width="90" height="60" as="geometry" />
        </mxCell>
        <mxCell id="wkOXgWB1VR7chD2TaQbj-48" value="visited&lt;div&gt;(읽은 횟수)&lt;/div&gt;" style="ellipse;whiteSpace=wrap;html=1;" parent="1" vertex="1">
          <mxGeometry x="1332.37" y="660" width="90" height="60" as="geometry" />
        </mxCell>
        <mxCell id="wkOXgWB1VR7chD2TaQbj-49" value="aid&lt;div&gt;(작성자 아이디)&lt;/div&gt;" style="ellipse;whiteSpace=wrap;html=1;" parent="1" vertex="1">
          <mxGeometry x="1432.37" y="660" width="90" height="60" as="geometry" />
        </mxCell>
        <mxCell id="wkOXgWB1VR7chD2TaQbj-51" value="" style="endArrow=classic;html=1;rounded=0;exitX=0.5;exitY=1;exitDx=0;exitDy=0;entryX=0.5;entryY=0;entryDx=0;entryDy=0;" parent="1" source="wkOXgWB1VR7chD2TaQbj-34" edge="1" target="GffUxIXmwD5VXiTMbOiv-12">
          <mxGeometry width="50" height="50" relative="1" as="geometry">
            <mxPoint x="1148.5" y="630" as="sourcePoint" />
            <mxPoint x="921" y="660" as="targetPoint" />
          </mxGeometry>
        </mxCell>
        <mxCell id="wkOXgWB1VR7chD2TaQbj-52" value="" style="endArrow=classic;html=1;rounded=0;exitX=0.5;exitY=1;exitDx=0;exitDy=0;entryX=0.5;entryY=0;entryDx=0;entryDy=0;" parent="1" source="wkOXgWB1VR7chD2TaQbj-34" target="wkOXgWB1VR7chD2TaQbj-45" edge="1">
          <mxGeometry width="50" height="50" relative="1" as="geometry">
            <mxPoint x="1217.5" y="580" as="sourcePoint" />
            <mxPoint x="966.5" y="660" as="targetPoint" />
          </mxGeometry>
        </mxCell>
        <mxCell id="wkOXgWB1VR7chD2TaQbj-53" value="" style="endArrow=classic;html=1;rounded=0;exitX=0.5;exitY=1;exitDx=0;exitDy=0;entryX=0.5;entryY=0;entryDx=0;entryDy=0;" parent="1" source="wkOXgWB1VR7chD2TaQbj-34" target="wkOXgWB1VR7chD2TaQbj-46" edge="1">
          <mxGeometry width="50" height="50" relative="1" as="geometry">
            <mxPoint x="1248" y="580" as="sourcePoint" />
            <mxPoint x="997" y="660" as="targetPoint" />
          </mxGeometry>
        </mxCell>
        <mxCell id="wkOXgWB1VR7chD2TaQbj-54" value="" style="endArrow=classic;html=1;rounded=0;exitX=0.5;exitY=1;exitDx=0;exitDy=0;entryX=0.5;entryY=0;entryDx=0;entryDy=0;" parent="1" source="wkOXgWB1VR7chD2TaQbj-34" target="wkOXgWB1VR7chD2TaQbj-36" edge="1">
          <mxGeometry width="50" height="50" relative="1" as="geometry">
            <mxPoint x="1274.5" y="580" as="sourcePoint" />
            <mxPoint x="1023.5" y="660" as="targetPoint" />
          </mxGeometry>
        </mxCell>
        <mxCell id="wkOXgWB1VR7chD2TaQbj-55" value="" style="endArrow=classic;html=1;rounded=0;exitX=0.5;exitY=1;exitDx=0;exitDy=0;entryX=0.5;entryY=0;entryDx=0;entryDy=0;" parent="1" source="wkOXgWB1VR7chD2TaQbj-34" target="wkOXgWB1VR7chD2TaQbj-47" edge="1">
          <mxGeometry width="50" height="50" relative="1" as="geometry">
            <mxPoint x="1368.5" y="620" as="sourcePoint" />
            <mxPoint x="1418.5" y="570" as="targetPoint" />
          </mxGeometry>
        </mxCell>
        <mxCell id="wkOXgWB1VR7chD2TaQbj-56" value="" style="endArrow=classic;html=1;rounded=0;exitX=0.5;exitY=1;exitDx=0;exitDy=0;entryX=0.5;entryY=0;entryDx=0;entryDy=0;" parent="1" source="wkOXgWB1VR7chD2TaQbj-34" target="wkOXgWB1VR7chD2TaQbj-48" edge="1">
          <mxGeometry width="50" height="50" relative="1" as="geometry">
            <mxPoint x="1038.5" y="590" as="sourcePoint" />
            <mxPoint x="1088.5" y="540" as="targetPoint" />
          </mxGeometry>
        </mxCell>
        <mxCell id="wkOXgWB1VR7chD2TaQbj-57" value="" style="endArrow=classic;html=1;rounded=0;exitX=0.5;exitY=1;exitDx=0;exitDy=0;entryX=0.5;entryY=0;entryDx=0;entryDy=0;" parent="1" source="wkOXgWB1VR7chD2TaQbj-34" target="wkOXgWB1VR7chD2TaQbj-49" edge="1">
          <mxGeometry width="50" height="50" relative="1" as="geometry">
            <mxPoint x="708.5" y="620" as="sourcePoint" />
            <mxPoint x="758.5" y="570" as="targetPoint" />
          </mxGeometry>
        </mxCell>
        <mxCell id="wkOXgWB1VR7chD2TaQbj-58" value="&lt;span style=&quot;font-size: 15px;&quot;&gt;&lt;b&gt;data&lt;/b&gt;&lt;/span&gt;&lt;div&gt;&lt;span style=&quot;font-size: 15px;&quot;&gt;&lt;b&gt;(자료실)&lt;/b&gt;&lt;/span&gt;&lt;/div&gt;" style="rounded=0;whiteSpace=wrap;html=1;" parent="1" vertex="1">
          <mxGeometry x="1112" y="280" width="120" height="60" as="geometry" />
        </mxCell>
        <mxCell id="wkOXgWB1VR7chD2TaQbj-59" value="&lt;font color=&quot;#990000&quot;&gt;&lt;b&gt;dno&lt;/b&gt;&lt;/font&gt;&lt;div&gt;&lt;font color=&quot;#990000&quot;&gt;&lt;b&gt;(글번호)&lt;/b&gt;&lt;/font&gt;&lt;/div&gt;" style="ellipse;whiteSpace=wrap;html=1;" parent="1" vertex="1">
          <mxGeometry x="876.25" y="380" width="90" height="60" as="geometry" />
        </mxCell>
        <mxCell id="wkOXgWB1VR7chD2TaQbj-60" value="title&lt;div&gt;(글제목)&lt;/div&gt;" style="ellipse;whiteSpace=wrap;html=1;" parent="1" vertex="1">
          <mxGeometry x="977.75" y="380" width="90" height="60" as="geometry" />
        </mxCell>
        <mxCell id="wkOXgWB1VR7chD2TaQbj-61" value="&lt;div&gt;content&lt;/div&gt;&lt;div&gt;(글내용)&lt;/div&gt;" style="ellipse;whiteSpace=wrap;html=1;" parent="1" vertex="1">
          <mxGeometry x="1077.75" y="380" width="90" height="60" as="geometry" />
        </mxCell>
        <mxCell id="wkOXgWB1VR7chD2TaQbj-62" value="resdate&lt;div&gt;(작성일자)&lt;/div&gt;" style="ellipse;whiteSpace=wrap;html=1;" parent="1" vertex="1">
          <mxGeometry x="1280" y="380" width="87.75" height="60" as="geometry" />
        </mxCell>
        <mxCell id="wkOXgWB1VR7chD2TaQbj-63" value="visited&lt;div&gt;(읽은 횟수)&lt;/div&gt;" style="ellipse;whiteSpace=wrap;html=1;" parent="1" vertex="1">
          <mxGeometry x="1377.75" y="380" width="90" height="60" as="geometry" />
        </mxCell>
        <mxCell id="wkOXgWB1VR7chD2TaQbj-64" value="datafile&lt;div&gt;(자료파일)&lt;/div&gt;" style="ellipse;whiteSpace=wrap;html=1;" parent="1" vertex="1">
          <mxGeometry x="1177.75" y="380" width="90" height="60" as="geometry" />
        </mxCell>
        <mxCell id="wkOXgWB1VR7chD2TaQbj-65" value="" style="endArrow=classic;html=1;rounded=0;exitX=0.5;exitY=1;exitDx=0;exitDy=0;entryX=0.5;entryY=0;entryDx=0;entryDy=0;" parent="1" source="wkOXgWB1VR7chD2TaQbj-58" target="wkOXgWB1VR7chD2TaQbj-59" edge="1">
          <mxGeometry width="50" height="50" relative="1" as="geometry">
            <mxPoint x="1272" y="220" as="sourcePoint" />
            <mxPoint x="1322" y="170" as="targetPoint" />
          </mxGeometry>
        </mxCell>
        <mxCell id="wkOXgWB1VR7chD2TaQbj-66" value="" style="endArrow=classic;html=1;rounded=0;exitX=0.5;exitY=1;exitDx=0;exitDy=0;entryX=0.5;entryY=0;entryDx=0;entryDy=0;" parent="1" source="wkOXgWB1VR7chD2TaQbj-58" target="wkOXgWB1VR7chD2TaQbj-60" edge="1">
          <mxGeometry width="50" height="50" relative="1" as="geometry">
            <mxPoint x="942" y="340" as="sourcePoint" />
            <mxPoint x="992" y="290" as="targetPoint" />
          </mxGeometry>
        </mxCell>
        <mxCell id="wkOXgWB1VR7chD2TaQbj-67" value="" style="endArrow=classic;html=1;rounded=0;exitX=0.5;exitY=1;exitDx=0;exitDy=0;entryX=0.5;entryY=0;entryDx=0;entryDy=0;" parent="1" source="wkOXgWB1VR7chD2TaQbj-58" target="wkOXgWB1VR7chD2TaQbj-61" edge="1">
          <mxGeometry width="50" height="50" relative="1" as="geometry">
            <mxPoint x="822" y="270" as="sourcePoint" />
            <mxPoint x="872" y="220" as="targetPoint" />
          </mxGeometry>
        </mxCell>
        <mxCell id="wkOXgWB1VR7chD2TaQbj-68" value="" style="endArrow=classic;html=1;rounded=0;exitX=0.5;exitY=1;exitDx=0;exitDy=0;entryX=0.5;entryY=0;entryDx=0;entryDy=0;" parent="1" source="wkOXgWB1VR7chD2TaQbj-58" target="wkOXgWB1VR7chD2TaQbj-64" edge="1">
          <mxGeometry width="50" height="50" relative="1" as="geometry">
            <mxPoint x="922" y="330" as="sourcePoint" />
            <mxPoint x="972" y="280" as="targetPoint" />
          </mxGeometry>
        </mxCell>
        <mxCell id="wkOXgWB1VR7chD2TaQbj-69" value="" style="endArrow=classic;html=1;rounded=0;exitX=0.5;exitY=1;exitDx=0;exitDy=0;entryX=0.5;entryY=0;entryDx=0;entryDy=0;" parent="1" source="wkOXgWB1VR7chD2TaQbj-58" target="wkOXgWB1VR7chD2TaQbj-62" edge="1">
          <mxGeometry width="50" height="50" relative="1" as="geometry">
            <mxPoint x="1201.63" y="340" as="sourcePoint" />
            <mxPoint x="1252.63" y="380" as="targetPoint" />
          </mxGeometry>
        </mxCell>
        <mxCell id="wkOXgWB1VR7chD2TaQbj-70" value="" style="endArrow=classic;html=1;rounded=0;exitX=0.5;exitY=1;exitDx=0;exitDy=0;entryX=0.5;entryY=0;entryDx=0;entryDy=0;" parent="1" source="wkOXgWB1VR7chD2TaQbj-58" target="wkOXgWB1VR7chD2TaQbj-63" edge="1">
          <mxGeometry width="50" height="50" relative="1" as="geometry">
            <mxPoint x="1210.25" y="330" as="sourcePoint" />
            <mxPoint x="1361.25" y="370" as="targetPoint" />
          </mxGeometry>
        </mxCell>
        <mxCell id="FDxoLe6O9AtDXGX3MepI-32" style="edgeStyle=orthogonalEdgeStyle;rounded=0;orthogonalLoop=1;jettySize=auto;html=1;exitX=0;exitY=0.5;exitDx=0;exitDy=0;entryX=0;entryY=0.5;entryDx=0;entryDy=0;" edge="1" parent="1" source="GffUxIXmwD5VXiTMbOiv-1" target="FDxoLe6O9AtDXGX3MepI-36">
          <mxGeometry relative="1" as="geometry">
            <mxPoint x="714.6199999999956" y="880" as="targetPoint" />
            <Array as="points">
              <mxPoint x="120" y="550" />
              <mxPoint x="120" y="880" />
            </Array>
          </mxGeometry>
        </mxCell>
        <mxCell id="GffUxIXmwD5VXiTMbOiv-1" value="&lt;span style=&quot;font-size: 15px;&quot;&gt;&lt;b&gt;member&lt;/b&gt;&lt;/span&gt;&lt;div&gt;&lt;span style=&quot;font-size: 15px;&quot;&gt;&lt;b&gt;(회원)&lt;/b&gt;&lt;/span&gt;&lt;/div&gt;" style="rounded=0;whiteSpace=wrap;html=1;" parent="1" vertex="1">
          <mxGeometry x="360" y="520" width="120" height="60" as="geometry" />
        </mxCell>
        <mxCell id="GffUxIXmwD5VXiTMbOiv-2" value="&lt;b&gt;&lt;u&gt;&lt;font color=&quot;#990000&quot;&gt;id&lt;/font&gt;&lt;/u&gt;&lt;/b&gt;&lt;div&gt;&lt;b&gt;&lt;u&gt;&lt;font color=&quot;#990000&quot;&gt;(아이디)&lt;/font&gt;&lt;/u&gt;&lt;/b&gt;&lt;/div&gt;" style="ellipse;whiteSpace=wrap;html=1;" parent="1" vertex="1">
          <mxGeometry x="173.63" y="660" width="90" height="60" as="geometry" />
        </mxCell>
        <mxCell id="GffUxIXmwD5VXiTMbOiv-3" value="pw&lt;div&gt;(비밀번호)&lt;/div&gt;" style="ellipse;whiteSpace=wrap;html=1;" parent="1" vertex="1">
          <mxGeometry x="275.13" y="660" width="90" height="60" as="geometry" />
        </mxCell>
        <mxCell id="GffUxIXmwD5VXiTMbOiv-4" value="name&lt;div&gt;(이름)&lt;/div&gt;" style="ellipse;whiteSpace=wrap;html=1;" parent="1" vertex="1">
          <mxGeometry x="375.13" y="660" width="90" height="60" as="geometry" />
        </mxCell>
        <mxCell id="GffUxIXmwD5VXiTMbOiv-5" value="email&lt;div&gt;(이메일)&lt;/div&gt;" style="ellipse;whiteSpace=wrap;html=1;" parent="1" vertex="1">
          <mxGeometry x="475.13" y="660" width="90" height="60" as="geometry" />
        </mxCell>
        <mxCell id="GffUxIXmwD5VXiTMbOiv-7" value="" style="endArrow=classic;html=1;rounded=0;entryX=0.5;entryY=0;entryDx=0;entryDy=0;exitX=0.5;exitY=1;exitDx=0;exitDy=0;" parent="1" source="GffUxIXmwD5VXiTMbOiv-1" target="GffUxIXmwD5VXiTMbOiv-2" edge="1">
          <mxGeometry width="50" height="50" relative="1" as="geometry">
            <mxPoint x="420" y="610" as="sourcePoint" />
            <mxPoint x="174.75" y="620" as="targetPoint" />
          </mxGeometry>
        </mxCell>
        <mxCell id="GffUxIXmwD5VXiTMbOiv-8" value="" style="endArrow=classic;html=1;rounded=0;entryX=0.5;entryY=0;entryDx=0;entryDy=0;exitX=0.5;exitY=1;exitDx=0;exitDy=0;" parent="1" source="GffUxIXmwD5VXiTMbOiv-1" target="GffUxIXmwD5VXiTMbOiv-3" edge="1">
          <mxGeometry width="50" height="50" relative="1" as="geometry">
            <mxPoint x="489.38" y="580" as="sourcePoint" />
            <mxPoint x="238.38" y="640" as="targetPoint" />
          </mxGeometry>
        </mxCell>
        <mxCell id="GffUxIXmwD5VXiTMbOiv-9" value="" style="endArrow=classic;html=1;rounded=0;entryX=0.5;entryY=0;entryDx=0;entryDy=0;exitX=0.5;exitY=1;exitDx=0;exitDy=0;" parent="1" source="GffUxIXmwD5VXiTMbOiv-1" target="GffUxIXmwD5VXiTMbOiv-5" edge="1">
          <mxGeometry width="50" height="50" relative="1" as="geometry">
            <mxPoint x="520" y="580" as="sourcePoint" />
            <mxPoint x="269" y="640" as="targetPoint" />
          </mxGeometry>
        </mxCell>
        <mxCell id="GffUxIXmwD5VXiTMbOiv-10" value="" style="endArrow=classic;html=1;rounded=0;entryX=0.5;entryY=0;entryDx=0;entryDy=0;exitX=0.5;exitY=1;exitDx=0;exitDy=0;" parent="1" source="GffUxIXmwD5VXiTMbOiv-1" target="GffUxIXmwD5VXiTMbOiv-4" edge="1">
          <mxGeometry width="50" height="50" relative="1" as="geometry">
            <mxPoint x="545.5" y="580" as="sourcePoint" />
            <mxPoint x="294.5" y="640" as="targetPoint" />
          </mxGeometry>
        </mxCell>
        <mxCell id="GffUxIXmwD5VXiTMbOiv-11" value="&lt;b&gt;&lt;u&gt;&lt;font color=&quot;#990000&quot;&gt;pcode&lt;/font&gt;&lt;/u&gt;&lt;/b&gt;&lt;div&gt;&lt;b&gt;&lt;u&gt;&lt;font color=&quot;#990000&quot;&gt;(장소코드)&lt;/font&gt;&lt;/u&gt;&lt;/b&gt;&lt;/div&gt;" style="ellipse;whiteSpace=wrap;html=1;" parent="1" vertex="1">
          <mxGeometry x="770" y="140" width="90" height="60" as="geometry" />
        </mxCell>
        <mxCell id="GffUxIXmwD5VXiTMbOiv-12" value="&lt;b&gt;&lt;u&gt;&lt;font color=&quot;#990000&quot;&gt;qno&lt;/font&gt;&lt;/u&gt;&lt;/b&gt;&lt;div&gt;&lt;b&gt;&lt;u&gt;&lt;font color=&quot;#990000&quot;&gt;(글번호)&lt;/font&gt;&lt;/u&gt;&lt;/b&gt;&lt;/div&gt;" style="ellipse;whiteSpace=wrap;html=1;" parent="1" vertex="1">
          <mxGeometry x="834.62" y="660" width="90" height="60" as="geometry" />
        </mxCell>
        <mxCell id="GffUxIXmwD5VXiTMbOiv-13" value="tel&lt;div&gt;(연락처)&lt;/div&gt;" style="ellipse;whiteSpace=wrap;html=1;" parent="1" vertex="1">
          <mxGeometry x="578.38" y="660" width="90" height="60" as="geometry" />
        </mxCell>
        <mxCell id="GffUxIXmwD5VXiTMbOiv-14" value="" style="endArrow=classic;html=1;rounded=0;entryX=0.5;entryY=0;entryDx=0;entryDy=0;exitX=0.5;exitY=1;exitDx=0;exitDy=0;" parent="1" source="GffUxIXmwD5VXiTMbOiv-1" target="GffUxIXmwD5VXiTMbOiv-13" edge="1">
          <mxGeometry width="50" height="50" relative="1" as="geometry">
            <mxPoint x="424.25" y="570" as="sourcePoint" />
            <mxPoint x="475.25" y="630" as="targetPoint" />
          </mxGeometry>
        </mxCell>
        <mxCell id="FDxoLe6O9AtDXGX3MepI-28" value="&lt;font color=&quot;#990000&quot;&gt;&lt;b&gt;tno&lt;/b&gt;&lt;/font&gt;&lt;div&gt;&lt;font color=&quot;#990000&quot;&gt;&lt;b&gt;(연번)&lt;/b&gt;&lt;/font&gt;&lt;/div&gt;" style="ellipse;whiteSpace=wrap;html=1;" vertex="1" parent="1">
          <mxGeometry x="175" y="140" width="90" height="60" as="geometry" />
        </mxCell>
        <mxCell id="FDxoLe6O9AtDXGX3MepI-29" value="" style="endArrow=classic;html=1;rounded=0;exitX=0.5;exitY=1;exitDx=0;exitDy=0;entryX=0.5;entryY=0;entryDx=0;entryDy=0;" edge="1" parent="1" source="wkOXgWB1VR7chD2TaQbj-1" target="FDxoLe6O9AtDXGX3MepI-28">
          <mxGeometry width="50" height="50" relative="1" as="geometry">
            <mxPoint x="327.5" y="90" as="sourcePoint" />
            <mxPoint x="143" y="120" as="targetPoint" />
          </mxGeometry>
        </mxCell>
        <mxCell id="FDxoLe6O9AtDXGX3MepI-30" value="" style="endArrow=classic;html=1;rounded=0;exitX=0.5;exitY=1;exitDx=0;exitDy=0;entryX=0.5;entryY=0;entryDx=0;entryDy=0;" edge="1" parent="1" source="wkOXgWB1VR7chD2TaQbj-10" target="GffUxIXmwD5VXiTMbOiv-11">
          <mxGeometry width="50" height="50" relative="1" as="geometry">
            <mxPoint x="1088" y="100" as="sourcePoint" />
            <mxPoint x="832" y="140" as="targetPoint" />
          </mxGeometry>
        </mxCell>
        <mxCell id="FDxoLe6O9AtDXGX3MepI-34" value="&lt;b&gt;&lt;font style=&quot;font-size: 15px;&quot;&gt;id&lt;/font&gt;&lt;/b&gt;" style="text;html=1;align=center;verticalAlign=middle;whiteSpace=wrap;rounded=0;" vertex="1" parent="1">
          <mxGeometry x="654.62" y="840" width="60" height="30" as="geometry" />
        </mxCell>
        <mxCell id="FDxoLe6O9AtDXGX3MepI-35" value="&lt;b&gt;&lt;font style=&quot;font-size: 15px;&quot; color=&quot;#007fff&quot;&gt;aid&lt;/font&gt;&lt;/b&gt;" style="text;html=1;align=center;verticalAlign=middle;whiteSpace=wrap;rounded=0;" vertex="1" parent="1">
          <mxGeometry x="849.62" y="840" width="60" height="30" as="geometry" />
        </mxCell>
        <mxCell id="FDxoLe6O9AtDXGX3MepI-36" value="회원등록" style="rhombus;whiteSpace=wrap;html=1;" vertex="1" parent="1">
          <mxGeometry x="730" y="840" width="80" height="80" as="geometry" />
        </mxCell>
      </root>
    </mxGraphModel>
  </diagram>
</mxfile>
